<svg xmlns="http://www.w3.org/2000/svg" xmlns:xlink="http://www.w3.org/1999/xlink" width="100" height="100" viewBox="0 0 100 100"><g><g transform="translate(50 50) scale(0.69 0.69) rotate(0) translate(-50 -50)" style="fill:#000000"><svg fill="#000000" xmlns="http://www.w3.org/2000/svg" xmlns:xlink="http://www.w3.org/1999/xlink" version="1.1" x="0px" y="0px" viewBox="0 0 1024 1024" style="enable-background:new 0 0 1024 1024;" xml:space="preserve"><g><g><path d="M691.5,325c19.6,19.6,39.2,39.2,58.8,58.8c1.9,1.9,3.8,3.8,5.7,5.7c0.5,0.5,0.9,1,1.4,1.4    c2.2,1.8-4.2-6.7-1.9-2.1c-1-2.4-2-4.8-3-7.2c0.3,0.9,0.6,1.7,0.7,2.7c-0.4-2.7-0.7-5.3-1.1-8c0.1,0.9,0.1,1.8,0,2.7    c0.4-2.7,0.7-5.3,1.1-8c-0.1,0.9-0.3,1.8-0.7,2.7c1-2.4,2-4.8,3-7.2c-1.9,3.9,2.4-2.5,2.3-2.5c-0.1,0.1-0.3,0.3-0.4,0.4    c-0.6,0.5-1.1,1.1-1.6,1.6c-2.2,2.2-4.3,4.3-6.5,6.5c-8.1,8.1-16.2,16.2-24.4,24.4c-26.7,26.7-53.3,53.3-80,80    c-32.5,32.5-65.1,65.1-97.6,97.6c-27.9,27.9-55.8,55.8-83.6,83.6c-13.4,13.4-27.8,26.3-40.4,40.4c-2.2,2.5,6.7-4.1,2.1-1.9    c2.4-1,4.8-2,7.2-3c-0.9,0.3-1.7,0.6-2.7,0.7c2.7-0.4,5.3-0.7,8-1.1c-0.9,0.1-1.8,0.1-2.7,0c2.7,0.4,5.3,0.7,8,1.1    c-0.9-0.1-1.8-0.3-2.7-0.7c2.4,1,4.8,2,7.2,3c-3.9-1.9,4.9,4.8,1.5,1.3c-1.2-1.2-2.4-2.4-3.6-3.6c-4.4-4.4-8.7-8.7-13.1-13.1    c-14.7-14.7-29.4-29.4-44.1-44.1c-33.3-33.3-66.6-66.6-99.8-99.8c-5.5-5.5-10.9-10.9-16.4-16.4c-1.5-1.5-3-3-4.5-4.5    c-0.4-0.4-0.7-0.8-1.1-1.1c-2.1-1.9,4.3,6.8,2.1,2.3c1,2.4,2,4.8,3,7.2c-0.3-0.9-0.6-1.7-0.7-2.7c0.4,2.7,0.7,5.3,1.1,8    c-0.1-0.9-0.1-1.8,0-2.7c-0.4,2.7-0.7,5.3-1.1,8c0.1-0.9,0.3-1.8,0.7-2.7c-1,2.4-2,4.8-3,7.2c2-4.1-4,4-2.1,2.3    c0.4-0.3,0.7-0.8,1.1-1.1c1.5-1.5,3-3,4.6-4.6c5.4-5.4,10.7-10.7,16.1-16.1c12.2-12.2,24.3-24.3,36.5-36.5    c1.9-1.9,3.8-3.8,5.8-5.8c0.5-0.5,1.1-1,1.5-1.5c1.8-2.2-6.7,4.2-2.1,1.9c-2.4,1-4.8,2-7.2,3c0.9-0.3,1.7-0.6,2.7-0.7    c-2.7,0.4-5.3,0.7-8,1.1c0.9-0.1,1.8-0.1,2.7,0c-2.7-0.4-5.3-0.7-8-1.1c0.9,0.1,1.8,0.3,2.7,0.7c-2.4-1-4.8-2-7.2-3    c4.6,2.2-4.3-4.4-2.1-1.9c0.6,0.7,1.4,1.4,2,2c2.6,2.6,5.1,5.1,7.7,7.7c8.7,8.7,17.4,17.4,26.1,26.1c20,20,39.9,39.9,59.9,59.9    c4.6,4.6,9.3,9.3,13.9,13.9c11.5,11.5,30.9,11.5,42.4,0c8.7-8.7,17.4-17.4,26-26c21-21,41.9-41.9,62.9-62.9    c25.2-25.2,50.4-50.4,75.6-75.6c21.8-21.8,43.6-43.6,65.4-65.4c7-7,14.1-14.1,21.1-21.1c3.2-3.2,7.2-6.3,9.9-9.9    c1.6-2.1-6.8,4.3-2.2,2c-2.4,1-4.8,2-7.2,3c0.9-0.3,1.7-0.6,2.7-0.7c-2.7,0.4-5.3,0.7-8,1.1c0.9-0.1,1.8-0.1,2.7,0    c-2.7-0.4-5.3-0.7-8-1.1c0.9,0.1,1.8,0.3,2.7,0.7c-2.4-1-4.8-2-7.2-3C696.7,328.8,695.9,328,691.5,325c6,5.3,13,8.8,21.2,8.8    c7.4,0,16.1-3.3,21.2-8.8c10.4-11.3,12.6-31.4,0-42.4c-13.7-12-31.3-15.4-47.9-7c-3.7,1.8-6.9,4.4-9.9,7.3    c-1.1,1.1-2.2,2.2-3.3,3.3c-5.5,5.5-11,11-16.4,16.4c-20.3,20.3-40.6,40.6-61,61c-25.9,25.9-51.8,51.8-77.7,77.7    c-22.8,22.8-45.5,45.5-68.3,68.3c-11.2,11.2-22.9,22.2-33.8,33.8c-0.2,0.2-0.3,0.3-0.5,0.5c14.1,0,28.3,0,42.4,0    c-29-29-58-58-87-87c-6.3-6.3-12.6-12.6-18.9-18.9c-1.3-1.3-2.6-2.6-3.9-3.9c-12.9-12.4-32.2-15.9-48.2-7.3    c-8.1,4.3-14.5,11.9-20.9,18.3c-9,9-18.1,18.1-27.1,27.1c-7.9,7.9-15.8,15.8-23.7,23.7c-1.4,1.4-2.8,2.7-4.1,4.1    c-15.5,16.6-15.4,41,0,57.6c7,7.5,14.5,14.5,21.8,21.8c35.6,35.6,71.3,71.3,106.9,106.9c14.6,14.6,29.2,29.2,43.8,43.8    c3.4,3.4,6.7,6.8,10.2,10.2c16.6,16.2,41.5,17.2,58.7,1.1c16.6-15.5,32.2-32.2,48.2-48.2c34.9-34.9,69.8-69.8,104.7-104.7    c37-37,74-74,111-111c22.3-22.3,44.6-44.6,67-67c1.3-1.3,2.7-2.6,4-4c13.1-13.7,15.6-34.2,5.7-50.4c-2.5-4-5.5-7.1-8.8-10.3    c-16.7-16.7-33.4-33.4-50.1-50.1c-4.3-4.3-8.6-8.6-13-13c-11.1-11.1-31.5-11.9-42.4,0C680.5,294.6,679.7,313.2,691.5,325z"></path></g></g><g><g><path d="M918,512c0,19.5-1.3,39-3.9,58.4c0.4-2.7,0.7-5.3,1.1-8c-5.1,38-15.2,75.1-30,110.4c1-2.4,2-4.8,3-7.2    c-8.6,20.3-18.6,40-30.2,58.8c-5.7,9.3-11.8,18.5-18.2,27.4c-1.5,2.1-3.1,4.2-4.7,6.3c-0.8,1.1-1.6,2.1-2.4,3.1    c-3.2,4.3,4.8-6.1,1.5-1.9c-3.5,4.5-7.1,8.9-10.8,13.2c-13.8,16.3-28.9,31.6-45,45.8c-3.9,3.5-7.9,6.9-12,10.2    c-2,1.7-4.1,3.3-6.1,4.9c-1.7,1.4-6,4.5,1.9-1.5c-1.4,1.1-2.8,2.1-4.2,3.2c-8.8,6.6-17.8,12.8-27,18.7    c-20.8,13.3-42.7,24.8-65.5,34.4c2.4-1,4.8-2,7.2-3c-35.3,14.8-72.5,24.9-110.4,30c2.7-0.4,5.3-0.7,8-1.1    c-38.7,5.1-78,5.1-116.7,0c2.7,0.4,5.3,0.7,8,1.1c-38-5.1-75.1-15.2-110.4-30c2.4,1,4.8,2,7.2,3c-20.3-8.6-40-18.6-58.8-30.2    c-9.3-5.7-18.5-11.8-27.4-18.2c-2.1-1.5-4.2-3.1-6.3-4.7c-1.1-0.8-2.1-1.6-3.1-2.4c-4.3-3.2,6.1,4.8,1.9,1.5    c-4.5-3.5-8.9-7.1-13.2-10.8c-16.3-13.8-31.6-28.9-45.8-45c-3.5-3.9-6.9-7.9-10.2-12c-1.7-2-3.3-4.1-4.9-6.1    c-1.4-1.7-4.5-6,1.5,1.9c-1.1-1.4-2.1-2.8-3.2-4.2c-6.6-8.8-12.8-17.8-18.7-27c-13.3-20.8-24.8-42.7-34.4-65.5c1,2.4,2,4.8,3,7.2    c-14.8-35.3-24.9-72.5-30-110.4c0.4,2.7,0.7,5.3,1.1,8c-5.1-38.7-5.1-78,0-116.7c-0.4,2.7-0.7,5.3-1.1,8    c5.1-38,15.2-75.1,30-110.4c-1,2.4-2,4.8-3,7.2c8.6-20.3,18.6-40,30.2-58.8c5.7-9.3,11.8-18.5,18.2-27.4c1.5-2.1,3.1-4.2,4.7-6.3    c0.8-1.1,1.6-2.1,2.4-3.1c3.2-4.3-4.8,6.1-1.5,1.9c3.5-4.5,7.1-8.9,10.8-13.2c13.8-16.3,28.9-31.6,45-45.8    c3.9-3.5,7.9-6.9,12-10.2c2-1.7,4.1-3.3,6.1-4.9c1.7-1.4,6-4.5-1.9,1.5c1.4-1.1,2.8-2.1,4.2-3.2c8.8-6.6,17.8-12.8,27-18.7    c20.8-13.3,42.7-24.8,65.5-34.4c-2.4,1-4.8,2-7.2,3c35.3-14.8,72.5-24.9,110.4-30c-2.7,0.4-5.3,0.7-8,1.1c38.7-5.1,78-5.1,116.7,0    c-2.7-0.4-5.3-0.7-8-1.1c38,5.1,75.1,15.2,110.4,30c-2.4-1-4.8-2-7.2-3c20.3,8.6,40,18.6,58.8,30.2c9.3,5.7,18.5,11.8,27.4,18.2    c2.1,1.5,4.2,3.1,6.3,4.7c1.1,0.8,2.1,1.6,3.1,2.4c4.3,3.2-6.1-4.8-1.9-1.5c4.5,3.5,8.9,7.1,13.2,10.8    c16.3,13.8,31.6,28.9,45.8,45c3.5,3.9,6.9,7.9,10.2,12c1.7,2,3.3,4.1,4.9,6.1c1.4,1.7,4.5,6-1.5-1.9c1.1,1.4,2.1,2.8,3.2,4.2    c6.6,8.8,12.8,17.8,18.7,27c13.3,20.8,24.8,42.7,34.4,65.5c-1-2.4-2-4.8-3-7.2c14.8,35.3,24.9,72.5,30,110.4    c-0.4-2.7-0.7-5.3-1.1-8C916.7,473,918,492.5,918,512c0,15.7,13.8,30.7,30,30c16.2-0.7,30-13.2,30-30c-0.1-48.3-7.4-97-22.4-143    c-14.4-44.4-35.3-86.9-62.5-125c-28.3-39.8-61.8-74.2-100.6-103.8c-37.1-28.5-78.6-50.5-122.5-66.6    C625,57.1,576.9,48.1,528.9,46.3c-48.3-1.8-97.3,4-143.8,17.2c-45,12.7-88.4,32.4-127.5,58.1c-38.6,25.4-73.9,56.3-103.3,92    c-31.3,37.9-55.9,79.4-74.6,124.8c-18.3,44.4-28.6,91.6-32.3,139.4c-3.8,48.6,0.5,98.2,12,145.5C70.4,668.8,88.8,713,113.1,753    c23.9,39.5,53.9,75.8,88.5,106.4c34.7,30.8,73.8,56.9,116.2,76c45.9,20.7,93.5,33.7,143.4,39.5c48.5,5.6,97.7,2.9,145.5-6.8    c46.1-9.3,91-26.3,132.1-49.1c40.3-22.4,77.7-51.3,109.6-84.7c32-33.4,59.4-71.8,80-113.2c21.1-42.4,36.3-87.9,43.5-134.8    c3.8-24.7,6.1-49.5,6.1-74.5c0-15.7-13.8-30.7-30-30C931.7,482.7,918,495.2,918,512z"></path></g></g></svg></g></g></svg>