<svg xmlns="http://www.w3.org/2000/svg" xmlns:xlink="http://www.w3.org/1999/xlink" width="100" height="100" viewBox="0 0 100 100"><g><g transform="translate(50 50) scale(0.69 0.69) rotate(0) translate(-50 -50)" style="fill:#000000"><svg fill="#000000" xmlns:dc="http://purl.org/dc/elements/1.1/" xmlns:cc="http://creativecommons.org/ns#" xmlns:rdf="http://www.w3.org/1999/02/22-rdf-syntax-ns#" xmlns:svg="http://www.w3.org/2000/svg" xmlns="http://www.w3.org/2000/svg" xmlns:sodipodi="http://sodipodi.sourceforge.net/DTD/sodipodi-0.dtd" xmlns:inkscape="http://www.inkscape.org/namespaces/inkscape" viewBox="0 0 16 16" version="1.1" x="0px" y="0px"><g transform="translate(0,-1036.3622)"><path style="color:#000000;font-style:normal;font-variant:normal;font-weight:normal;font-stretch:normal;font-size:medium;line-height:normal;font-family:sans-serif;text-indent:0;text-align:start;text-decoration:none;text-decoration-line:none;text-decoration-style:solid;text-decoration-color:#000000;letter-spacing:normal;word-spacing:normal;text-transform:none;direction:ltr;block-progression:tb;writing-mode:lr-tb;baseline-shift:baseline;text-anchor:start;white-space:normal;clip-rule:nonzero;display:inline;overflow:visible;visibility:visible;opacity:1;isolation:auto;mix-blend-mode:normal;color-interpolation:sRGB;color-interpolation-filters:linearRGB;solid-color:#000000;solid-opacity:1;fill:#000000;fill-opacity:1;fill-rule:nonzero;stroke:none;stroke-width:1;stroke-linecap:butt;stroke-linejoin:miter;stroke-miterlimit:4;stroke-dasharray:none;stroke-dashoffset:0;stroke-opacity:1;color-rendering:auto;image-rendering:auto;shape-rendering:auto;text-rendering:auto;enable-background:accumulate" d="M 8 0 C 3.5876443 0 2.9415703e-007 3.5877 0 8 C 2.9415703e-007 12.4124 3.5876443 16 8 16 C 12.412356 16 16 12.4124 16 8 C 16 3.5877 12.412356 0 8 0 z M 8 1 C 11.871915 1 15 4.1281 15 8 C 15 11.8719 11.871915 15 8 15 C 4.1280844 15 1.0000003 11.8719 1 8 C 1.0000003 4.1281 4.1280844 1 8 1 z M 6 3 L 6 3.5 L 6 6 L 3 6 L 3 10 L 6 10 L 6 13 L 10 13 L 10 10 L 13 10 L 13 6 L 10 6 L 10 3 L 6 3 z M 7 4 L 9 4 L 9 7 L 12 7 L 12 9 L 9 9 L 9 12 L 7 12 L 7 9 L 4 9 L 4 7 L 7 7 L 7 4 z " transform="translate(0,1036.3622)"></path></g></svg></g></g></svg>