<svg width="400" height="400" viewBox="0 0 400 400" fill="none" xmlns="http://www.w3.org/2000/svg">
<g clip-path="url(#clip0)">
<path d="M61.4805 160.773C34.4289 92.8602 67.5813 37.3672 69.0055 35.0391L77.3656 21.3711L137.427 91.1773L61.4805 160.773Z" fill="#FFAB00"/>
<path d="M83.1727 152.134C73.7289 128.424 71.7805 103.662 77.382 78.5336C78.7352 72.4609 80.3922 67.0891 82.0242 62.5859L119.728 106.408L83.1727 152.134Z" fill="#D37B93"/>
<path d="M338.52 160.773C365.571 92.8602 332.418 37.368 330.995 35.0391L322.634 21.3711L262.573 91.1773L338.52 160.773Z" fill="#BD7F00"/>
<path d="M316.827 152.134C326.27 128.425 328.22 103.662 322.618 78.5336C321.265 72.4609 319.608 67.0898 317.976 62.5859L280.272 106.408L316.827 152.134Z" fill="#9D5B6E"/>
<path d="M200 374.513C178.4 374.513 166.738 359.312 154.391 343.22C148.927 336.1 143.279 328.737 136.182 321.641C113.752 299.211 15.4086 232.189 14.4172 231.514L0 221.701L14.568 212.112C31.4414 201.006 42.9195 182.161 55.0742 162.209C68.0539 140.899 81.4766 118.865 103.329 101.43C128.424 81.4086 160.045 71.6758 200.001 71.6758C239.955 71.6758 271.577 81.4086 296.672 101.43C318.525 118.865 331.947 140.899 344.927 162.209C357.08 182.161 368.559 201.006 385.432 212.112L400.001 221.701L385.583 231.515C384.592 232.19 286.249 299.211 263.819 321.641C256.723 328.737 251.073 336.1 245.61 343.22C233.263 359.313 221.6 374.513 200 374.513Z" fill="#FFAB00"/>
<path d="M245.609 343.22C251.073 336.099 256.721 328.737 263.818 321.641C286.249 299.209 384.591 232.188 385.582 231.514L400 221.701C399.995 221.699 334.806 201.984 277.32 201.984C216.149 201.984 223.95 323.668 225.202 365.745C232.838 359.859 239.13 351.665 245.609 343.22Z" fill="#EFC589"/>
<path d="M154.391 343.22C148.927 336.1 143.279 328.738 136.182 321.641C113.752 299.211 15.4086 232.189 14.4172 231.514L0 221.701C0.00546875 221.699 65.1938 201.984 122.68 201.984C183.852 201.984 176.05 323.668 174.798 365.745C167.162 359.859 160.87 351.666 154.391 343.22Z" fill="#EFC589"/>
<path d="M296.185 239.82C296.185 232.347 290.201 226.289 282.831 226.289C275.454 226.289 269.469 232.347 269.469 239.82C269.469 247.292 275.453 253.35 282.831 253.35C290.201 253.349 296.185 247.292 296.185 239.82Z" fill="#333333"/>
<path d="M130.53 239.82C130.53 232.347 124.546 226.289 117.177 226.289C109.799 226.289 103.813 232.347 103.813 239.82C103.813 247.292 109.798 253.35 117.177 253.35C124.546 253.349 130.53 247.292 130.53 239.82Z" fill="#333333"/>
<path d="M200 378.626C190.873 378.626 182.714 371.456 179.63 368.373C176.534 365.279 169.332 357.081 169.332 347.817C169.332 340.238 173.107 334.477 179.961 331.593C184.53 329.67 190.336 328.887 199.999 328.887C209.663 328.887 215.469 329.67 220.038 331.593C226.892 334.477 230.667 340.238 230.667 347.817C230.667 357.081 223.466 365.279 220.37 368.373C217.286 371.455 209.127 378.626 200 378.626Z" fill="#211915"/>
<path d="M231.03 73.8844H231.032H231.03ZM230.619 73.8219C230.621 73.8219 230.622 73.8227 230.623 73.8227C230.621 73.8227 230.622 73.8226 230.619 73.8219ZM230.209 73.7617C230.212 73.7617 230.209 73.7617 230.212 73.7617H230.209ZM229.792 73.7008C229.797 73.7016 229.801 73.7016 229.805 73.7023C229.801 73.7023 229.796 73.7016 229.792 73.7008ZM229.373 73.6406C229.379 73.6414 229.39 73.643 229.396 73.6437C229.389 73.643 229.38 73.6422 229.373 73.6406ZM228.961 73.5828C228.967 73.5836 228.975 73.5852 228.982 73.5859C228.974 73.5844 228.968 73.5836 228.961 73.5828ZM228.547 73.5258C228.553 73.5266 228.559 73.5273 228.566 73.5281C228.56 73.5281 228.552 73.5266 228.547 73.5258ZM228.283 73.4898C228.287 73.4906 228.288 73.4906 228.291 73.4914C228.289 73.4906 228.286 73.4898 228.283 73.4898ZM228.129 73.4687C228.137 73.4695 228.144 73.4711 228.153 73.4719C228.145 73.4711 228.137 73.4703 228.129 73.4687ZM227.867 73.4336C227.872 73.4344 227.873 73.4344 227.877 73.4352C227.873 73.4344 227.872 73.4344 227.867 73.4336ZM227.726 73.4148C227.728 73.4148 227.73 73.4156 227.733 73.4156C227.731 73.4156 227.727 73.4148 227.726 73.4148ZM227.452 73.3789C227.457 73.3797 227.457 73.3797 227.462 73.3797C227.457 73.3789 227.456 73.3789 227.452 73.3789ZM227.029 73.3242C227.037 73.325 227.048 73.3266 227.057 73.3281C227.048 73.3266 227.037 73.325 227.029 73.3242ZM226.612 73.2711C226.62 73.2719 226.63 73.2734 226.638 73.2742C226.629 73.2734 226.62 73.2719 226.612 73.2711ZM226.189 73.218C226.202 73.2195 226.21 73.2203 226.223 73.2219C226.213 73.2203 226.199 73.2187 226.189 73.218ZM225.771 73.1664C225.782 73.168 225.791 73.1687 225.802 73.1703C225.791 73.1687 225.781 73.1672 225.771 73.1664ZM225.341 73.1148C225.357 73.1164 225.374 73.1187 225.39 73.1203C225.373 73.1187 225.357 73.1164 225.341 73.1148ZM225.087 73.0844C225.089 73.0844 225.093 73.0852 225.095 73.0852C225.092 73.0852 225.089 73.0852 225.087 73.0844ZM224.921 73.0648C224.937 73.0664 224.953 73.0687 224.969 73.0703C224.952 73.0687 224.937 73.0672 224.921 73.0648ZM224.501 73.0164C224.514 73.018 224.528 73.0195 224.541 73.0211C224.528 73.0195 224.514 73.018 224.501 73.0164ZM224.241 72.9867C224.252 72.9883 224.262 72.9891 224.273 72.9906C224.263 72.9891 224.252 72.9875 224.241 72.9867ZM224.08 72.968C224.093 72.9695 224.106 72.9711 224.12 72.9726C224.105 72.9711 224.092 72.9695 224.08 72.968ZM223.818 72.9398C223.827 72.9406 223.841 72.9422 223.85 72.9437C223.84 72.9422 223.828 72.9406 223.818 72.9398ZM223.654 72.9211C223.67 72.9226 223.681 72.9242 223.697 72.9258C223.682 72.9242 223.669 72.9226 223.654 72.9211ZM223.389 72.8922C223.405 72.8937 223.421 72.8961 223.437 72.8976C223.421 72.8953 223.405 72.8937 223.389 72.8922ZM223.228 72.875C223.241 72.8766 223.259 72.8781 223.272 72.8797C223.257 72.8781 223.243 72.8766 223.228 72.875ZM222.967 72.8469C222.98 72.8484 222.995 72.85 223.009 72.8516C222.995 72.8492 222.982 72.8484 222.967 72.8469ZM222.802 72.8289C222.817 72.8305 222.831 72.832 222.847 72.8336C222.832 72.832 222.816 72.8305 222.802 72.8289ZM222.534 72.8008C222.556 72.8031 222.573 72.8047 222.596 72.807C222.575 72.8047 222.554 72.8031 222.534 72.8008ZM222.364 72.7828C222.384 72.7852 222.401 72.7867 222.421 72.7891C222.402 72.7867 222.384 72.7852 222.364 72.7828ZM222.103 72.7562C222.126 72.7586 222.153 72.7609 222.175 72.7633C222.152 72.7609 222.127 72.7586 222.103 72.7562ZM221.922 72.7383C221.947 72.7406 221.972 72.7437 221.997 72.7461C221.972 72.7437 221.947 72.7406 221.922 72.7383ZM221.672 72.7133C221.697 72.7156 221.723 72.7187 221.748 72.7211C221.722 72.718 221.698 72.7156 221.672 72.7133ZM221.484 72.6945C221.511 72.6969 221.541 72.7 221.568 72.7031C221.54 72.7 221.512 72.6969 221.484 72.6945ZM221.248 72.6711C221.271 72.6734 221.291 72.675 221.314 72.6773C221.292 72.6758 221.271 72.6734 221.248 72.6711ZM220.815 72.6289C220.84 72.6312 220.863 72.6336 220.888 72.6359C220.863 72.6336 220.838 72.6312 220.815 72.6289ZM220.563 72.6055C220.595 72.6086 220.63 72.6117 220.662 72.6148C220.627 72.6117 220.598 72.6086 220.563 72.6055ZM220.384 72.5883C220.409 72.5906 220.434 72.593 220.459 72.5953C220.434 72.593 220.409 72.5906 220.384 72.5883ZM220.135 72.5656C220.158 72.568 220.185 72.5703 220.208 72.5726C220.183 72.5695 220.161 72.568 220.135 72.5656ZM219.947 72.5484C219.974 72.5508 220.002 72.5531 220.03 72.5562C220 72.5531 219.975 72.5508 219.947 72.5484ZM219.701 72.5266C219.73 72.5289 219.761 72.532 219.791 72.5344C219.761 72.532 219.73 72.5289 219.701 72.5266ZM219.522 72.5102C219.547 72.5125 219.57 72.5141 219.595 72.5164C219.57 72.5148 219.545 72.5125 219.522 72.5102ZM219.269 72.4883C219.296 72.4906 219.322 72.493 219.349 72.4953C219.322 72.493 219.296 72.4906 219.269 72.4883ZM219.084 72.4719C219.111 72.4742 219.137 72.4766 219.164 72.4789C219.137 72.4766 219.111 72.4742 219.084 72.4719ZM218.834 72.4508C218.862 72.4531 218.888 72.4555 218.916 72.4578C218.888 72.4555 218.861 72.4531 218.834 72.4508ZM218.64 72.4344C218.67 72.4367 218.701 72.4398 218.73 72.4422C218.7 72.4391 218.67 72.4367 218.64 72.4344ZM218.396 72.4133C218.428 72.4156 218.459 72.4187 218.491 72.4211C218.46 72.4187 218.427 72.4164 218.396 72.4133ZM218.179 72.3953C218.22 72.3984 218.261 72.4023 218.302 72.4055C218.26 72.4023 218.221 72.3992 218.179 72.3953ZM217.96 72.3781C217.995 72.3812 218.026 72.3836 218.06 72.3859C218.027 72.3828 217.994 72.3805 217.96 72.3781ZM217.748 72.3609C217.787 72.3641 217.823 72.3672 217.861 72.3695C217.824 72.3664 217.787 72.3633 217.748 72.3609ZM217.523 72.343C217.555 72.3453 217.587 72.3477 217.619 72.3508C217.587 72.3477 217.555 72.3453 217.523 72.343ZM217.273 72.3234C217.326 72.3273 217.377 72.3312 217.43 72.3359C217.377 72.332 217.325 72.3281 217.273 72.3234ZM217.086 72.3094C217.118 72.3117 217.155 72.3148 217.187 72.3172C217.152 72.3141 217.12 72.3117 217.086 72.3094ZM216.835 72.2898C216.888 72.2937 216.938 72.2976 216.991 72.3016C216.94 72.2984 216.887 72.2937 216.835 72.2898ZM216.648 72.2758C216.68 72.2781 216.714 72.2805 216.746 72.2828C216.712 72.2812 216.68 72.2789 216.648 72.2758ZM216.394 72.257C216.449 72.2609 216.503 72.2648 216.558 72.2695C216.502 72.2656 216.45 72.2617 216.394 72.257ZM216.201 72.243C216.24 72.2461 216.279 72.2484 216.317 72.2516C216.279 72.2492 216.238 72.2461 216.201 72.243ZM215.954 72.2258C216.009 72.2297 216.064 72.2336 216.12 72.2375C216.063 72.2336 216.01 72.2297 215.954 72.2258ZM215.757 72.2117C215.796 72.2141 215.838 72.2172 215.877 72.2203C215.837 72.2172 215.796 72.2141 215.757 72.2117ZM215.517 72.1953C215.573 72.1992 215.628 72.2031 215.684 72.207C215.629 72.2023 215.573 72.1984 215.517 72.1953ZM215.316 72.1812C215.355 72.1836 215.398 72.1867 215.436 72.1898C215.395 72.1867 215.356 72.1836 215.316 72.1812ZM215.072 72.1648C215.123 72.168 215.177 72.1719 215.227 72.175C215.177 72.1719 215.123 72.168 215.072 72.1648ZM214.868 72.1508C214.912 72.1539 214.953 72.1562 214.996 72.1594C214.954 72.157 214.91 72.1539 214.868 72.1508ZM214.63 72.1352C214.681 72.1383 214.732 72.1414 214.783 72.1453C214.734 72.1422 214.68 72.1391 214.63 72.1352ZM214.423 72.1227C214.47 72.1258 214.511 72.1281 214.557 72.1312C214.512 72.1289 214.47 72.1258 214.423 72.1227ZM214.191 72.1078C214.235 72.1109 214.28 72.1133 214.323 72.1164C214.278 72.1141 214.234 72.1109 214.191 72.1078ZM213.961 72.0937C214.012 72.0969 214.063 72.1 214.113 72.1031C214.063 72.1 214.01 72.0969 213.961 72.0937ZM213.746 72.0805C213.793 72.0836 213.84 72.0859 213.885 72.0891C213.84 72.0867 213.791 72.0836 213.746 72.0805ZM213.512 72.0664C213.566 72.0695 213.62 72.0727 213.673 72.0758C213.617 72.0734 213.566 72.0703 213.512 72.0664ZM213.302 72.0539C213.346 72.0562 213.391 72.0594 213.434 72.0617C213.39 72.0594 213.346 72.057 213.302 72.0539ZM213.052 72.0398C213.11 72.043 213.17 72.0469 213.228 72.05C213.17 72.0469 213.11 72.043 213.052 72.0398ZM212.852 72.0289C212.899 72.0312 212.947 72.0344 212.993 72.0367C212.948 72.0336 212.898 72.0312 212.852 72.0289ZM212.609 72.0148C212.667 72.018 212.73 72.0219 212.788 72.025C212.729 72.0219 212.669 72.018 212.609 72.0148ZM212.404 72.0039C212.451 72.0062 212.499 72.0094 212.546 72.0117C212.499 72.0086 212.452 72.0062 212.404 72.0039ZM212.162 71.9906C212.223 71.9937 212.281 71.9969 212.342 72C212.284 71.9969 212.223 71.9937 212.162 71.9906ZM211.962 71.9805C212.006 71.9828 212.051 71.9851 212.095 71.9875C212.051 71.9851 212.006 71.9828 211.962 71.9805ZM211.717 71.968C211.776 71.9711 211.837 71.9742 211.896 71.9773C211.837 71.9734 211.777 71.9703 211.717 71.968ZM211.509 71.957C211.556 71.9594 211.603 71.9617 211.649 71.9641C211.602 71.9617 211.557 71.9594 211.509 71.957ZM211.268 71.9453C211.329 71.9484 211.39 71.9516 211.451 71.9539C211.391 71.9508 211.327 71.9484 211.268 71.9453ZM211.052 71.9344C211.103 71.9367 211.155 71.9391 211.205 71.9422C211.155 71.9398 211.102 71.9367 211.052 71.9344ZM210.823 71.9234C210.884 71.9266 210.946 71.9289 211.007 71.932C210.945 71.9297 210.884 71.9266 210.823 71.9234ZM210.605 71.9141C210.655 71.9164 210.705 71.9187 210.754 71.9211C210.704 71.9187 210.655 71.9164 210.605 71.9141ZM210.373 71.9039C210.434 71.907 210.495 71.9094 210.557 71.9125C210.495 71.9094 210.435 71.907 210.373 71.9039ZM210.154 71.8945C210.203 71.8969 210.254 71.8992 210.302 71.9008C210.254 71.8984 210.203 71.8961 210.154 71.8945ZM209.929 71.8844C209.988 71.8867 210.043 71.8891 210.102 71.8922C210.045 71.8891 209.986 71.8867 209.929 71.8844ZM209.708 71.875C209.755 71.8766 209.805 71.8789 209.851 71.8812C209.804 71.8789 209.755 71.8773 209.708 71.875ZM209.474 71.8656C209.524 71.868 209.577 71.8695 209.625 71.8719C209.575 71.8695 209.525 71.8672 209.474 71.8656ZM209.216 71.8555C209.278 71.8578 209.345 71.8601 209.406 71.8633C209.345 71.8601 209.278 71.8578 209.216 71.8555ZM209.02 71.8477C209.079 71.85 209.136 71.8523 209.195 71.8547C209.137 71.8516 209.078 71.85 209.02 71.8477ZM208.769 71.8375C208.833 71.8398 208.894 71.8422 208.958 71.8445C208.895 71.8422 208.832 71.8398 208.769 71.8375ZM208.566 71.8305C208.621 71.8328 208.673 71.8344 208.728 71.8367C208.675 71.8344 208.619 71.832 208.566 71.8305ZM208.315 71.8211C208.379 71.8234 208.441 71.8258 208.506 71.8281C208.441 71.8258 208.378 71.8234 208.315 71.8211ZM208.111 71.8141C208.166 71.8156 208.222 71.818 208.277 71.8195C208.22 71.818 208.167 71.8156 208.111 71.8141ZM207.863 71.8055C207.927 71.8078 207.992 71.8102 208.056 71.8117C207.992 71.8102 207.927 71.8078 207.863 71.8055ZM207.654 71.7984C207.711 71.8 207.763 71.8023 207.82 71.8039C207.764 71.8023 207.71 71.8008 207.654 71.7984ZM207.408 71.7906C207.472 71.793 207.539 71.7945 207.603 71.7969C207.538 71.7945 207.473 71.793 207.408 71.7906ZM207.199 71.7844C207.254 71.7859 207.309 71.7875 207.364 71.7898C207.309 71.7875 207.254 71.7859 207.199 71.7844ZM206.956 71.7773C207.021 71.7789 207.084 71.7812 207.149 71.7828C207.086 71.7812 207.02 71.7789 206.956 71.7773ZM206.742 71.7711C206.795 71.7726 206.852 71.7742 206.904 71.7758C206.85 71.7742 206.797 71.7726 206.742 71.7711ZM206.498 71.7641C206.565 71.7656 206.627 71.768 206.695 71.7695C206.629 71.768 206.563 71.7656 206.498 71.7641ZM206.278 71.7578C206.336 71.7594 206.395 71.7609 206.452 71.7625C206.394 71.7609 206.335 71.7594 206.278 71.7578ZM206.045 71.7523C206.113 71.7539 206.176 71.7555 206.242 71.757C206.177 71.7555 206.111 71.7539 206.045 71.7523ZM205.819 71.7461C205.877 71.7477 205.936 71.7492 205.993 71.7508C205.934 71.7492 205.877 71.7477 205.819 71.7461ZM205.587 71.7406C205.654 71.7422 205.717 71.7437 205.784 71.7453C205.719 71.7437 205.653 71.7422 205.587 71.7406ZM205.359 71.7351C205.417 71.7367 205.477 71.7375 205.534 71.7391C205.477 71.7383 205.417 71.7367 205.359 71.7351ZM205.133 71.7305C205.198 71.732 205.262 71.7336 205.327 71.7344C205.263 71.7336 205.197 71.732 205.133 71.7305ZM204.901 71.7258C204.959 71.7266 205.016 71.7281 205.073 71.7297C205.017 71.7281 204.958 71.7266 204.901 71.7258ZM204.673 71.7211C204.73 71.7219 204.791 71.7234 204.848 71.7242C204.788 71.7234 204.733 71.7219 204.673 71.7211ZM204.418 71.7164C204.483 71.7172 204.552 71.7187 204.616 71.7203C204.55 71.7187 204.484 71.7172 204.418 71.7164ZM204.214 71.7133C204.274 71.7141 204.334 71.7156 204.395 71.7164C204.334 71.7148 204.275 71.7133 204.214 71.7133ZM203.96 71.7094C204.028 71.7102 204.091 71.7117 204.159 71.7125C204.092 71.7109 204.027 71.7102 203.96 71.7094ZM203.747 71.7055C203.807 71.7062 203.869 71.707 203.929 71.7086C203.869 71.7078 203.807 71.7062 203.747 71.7055ZM203.499 71.7016C203.567 71.7023 203.634 71.7039 203.701 71.7047C203.633 71.7039 203.568 71.7031 203.499 71.7016ZM203.29 71.6992C203.348 71.7 203.404 71.7008 203.463 71.7016C203.404 71.7008 203.348 71.7 203.29 71.6992ZM203.042 71.6953C203.108 71.6961 203.173 71.6969 203.239 71.6977C203.173 71.6977 203.109 71.6969 203.042 71.6953ZM202.824 71.693C202.88 71.6937 202.937 71.6945 202.993 71.6953C202.937 71.6945 202.881 71.6937 202.824 71.693ZM202.578 71.6898C202.646 71.6906 202.712 71.6914 202.78 71.6922C202.711 71.6914 202.645 71.6906 202.578 71.6898ZM202.362 71.6883C202.421 71.6891 202.475 71.6891 202.533 71.6898C202.476 71.6891 202.419 71.6883 202.362 71.6883ZM202.115 71.6859C202.183 71.6867 202.249 71.6875 202.317 71.6875C202.248 71.6867 202.183 71.6859 202.115 71.6859ZM201.887 71.6836C201.948 71.6844 202.012 71.6844 202.073 71.6852C202.013 71.6852 201.948 71.6844 201.887 71.6836ZM201.651 71.682C201.721 71.6828 201.787 71.6828 201.857 71.6836C201.788 71.6828 201.72 71.6828 201.651 71.682ZM201.42 71.6805C201.48 71.6805 201.545 71.6812 201.606 71.6812C201.543 71.6812 201.484 71.6812 201.42 71.6805ZM201.189 71.6797C201.257 71.6797 201.326 71.6805 201.395 71.6805C201.327 71.6805 201.258 71.6797 201.189 71.6797ZM200.953 71.6781C201.014 71.6781 201.078 71.6789 201.139 71.6789C201.078 71.6789 201.016 71.6789 200.953 71.6781ZM200.724 71.6773C200.792 71.6773 200.859 71.6773 200.928 71.6781C200.86 71.6781 200.794 71.6781 200.724 71.6773ZM200.48 71.6773C200.544 71.6773 200.608 71.6773 200.671 71.6773C200.607 71.6773 200.545 71.6773 200.48 71.6773ZM200.259 71.6766C200.328 71.6766 200.396 71.6766 200.465 71.6766C200.396 71.6766 200.328 71.6766 200.259 71.6766ZM200 71.6766C200.069 71.6766 200.14 71.6766 200.209 71.6766C200.139 71.6766 200.069 71.6766 200 71.6766ZM331.037 35.1086C331.037 35.1094 331.037 35.1102 331.038 35.1109C331.037 35.1102 331.037 35.1094 331.037 35.1086ZM331.02 35.0805C331.02 35.0812 331.021 35.0828 331.022 35.0844C331.021 35.0828 331.02 35.082 331.02 35.0805ZM331.001 35.05C331.005 35.0578 331.011 35.0664 331.016 35.075C331.011 35.0664 331.006 35.0578 331.001 35.05ZM322.634 21.3711L330.995 35.0391C330.996 35.0414 330.997 35.043 330.998 35.0453C330.997 35.043 330.996 35.0406 330.995 35.0391L322.634 21.3711Z" fill="#BDBDBF"/>
<path d="M225.108 362.789C223.349 365.251 221.558 367.189 220.37 368.376C219.918 368.828 219.356 369.368 218.698 369.961C220.983 368.751 223.142 367.331 225.202 365.744C225.173 364.799 225.142 363.815 225.108 362.789ZM200 71.6781V328.89C209.664 328.89 215.47 329.673 220.039 331.596C221.623 332.263 223.043 333.083 224.289 334.043C223.501 281.34 227.92 201.987 277.319 201.987C334.805 201.987 399.995 221.702 399.999 221.703L385.582 231.517L400 221.703L385.431 212.114C368.558 201.009 357.08 182.163 344.926 162.211C343.5 159.87 342.068 157.521 340.621 155.17C335.305 146.53 329.773 137.868 323.501 129.534C315.941 119.487 307.303 109.915 296.671 101.433C294.263 99.5117 291.798 97.6867 289.267 95.9539C282.733 91.4797 275.784 87.6328 268.399 84.4078C257.02 79.4383 244.598 75.9414 231.032 73.8867H231.03C230.895 73.8664 230.759 73.8453 230.624 73.8258C230.622 73.8258 230.621 73.8258 230.62 73.825C230.484 73.8047 230.348 73.7844 230.212 73.7648C230.209 73.7648 230.212 73.7648 230.209 73.7648C230.074 73.7445 229.941 73.725 229.805 73.7055C229.8 73.7047 229.796 73.7039 229.792 73.7039C229.661 73.6852 229.528 73.6656 229.397 73.6469C229.391 73.6461 229.38 73.6445 229.373 73.6438C229.244 73.625 229.112 73.607 228.982 73.5883C228.976 73.5875 228.968 73.5859 228.961 73.5852C228.829 73.5664 228.698 73.5484 228.566 73.5305C228.56 73.5297 228.554 73.5289 228.547 73.5281C228.462 73.5164 228.377 73.5047 228.291 73.493C228.287 73.4922 228.287 73.4922 228.283 73.4914C228.24 73.4852 228.196 73.4797 228.153 73.4734C228.145 73.4727 228.138 73.4711 228.129 73.4703C228.045 73.4586 227.961 73.4477 227.877 73.4367C227.872 73.4359 227.87 73.4359 227.866 73.4352C227.822 73.4289 227.777 73.4234 227.732 73.4172C227.73 73.4172 227.727 73.4164 227.725 73.4164C227.637 73.4047 227.548 73.393 227.459 73.3813C227.455 73.3805 227.455 73.3805 227.45 73.3805C227.319 73.3633 227.186 73.3461 227.055 73.3289C227.046 73.3281 227.035 73.3266 227.027 73.325C226.897 73.3086 226.766 73.2914 226.637 73.275C226.628 73.2742 226.619 73.2727 226.61 73.2719C226.48 73.2555 226.352 73.2391 226.222 73.2227C226.209 73.2211 226.201 73.2203 226.187 73.2188C226.059 73.2023 225.929 73.1867 225.8 73.1711C225.789 73.1695 225.78 73.1688 225.77 73.1672C225.642 73.1516 225.516 73.1367 225.388 73.1211C225.373 73.1195 225.355 73.1172 225.34 73.1156C225.258 73.1062 225.176 73.0961 225.094 73.0867C225.091 73.0867 225.088 73.0859 225.085 73.0859C225.045 73.0813 225.005 73.0766 224.967 73.0719C224.952 73.0703 224.935 73.068 224.92 73.0664C224.793 73.0516 224.667 73.0367 224.541 73.0219C224.527 73.0203 224.513 73.0188 224.5 73.0172C224.423 73.0086 224.348 73 224.273 72.9914C224.262 72.9898 224.252 72.9891 224.241 72.9875C224.199 72.9828 224.159 72.9781 224.119 72.9734C224.105 72.9719 224.092 72.9703 224.079 72.9688C224.002 72.9602 223.926 72.9516 223.85 72.943C223.841 72.9422 223.827 72.9406 223.818 72.9391C223.777 72.9344 223.737 72.9305 223.697 72.9258C223.681 72.9242 223.67 72.9227 223.654 72.9211C223.582 72.9133 223.509 72.9047 223.437 72.8969C223.421 72.8953 223.405 72.893 223.389 72.8914C223.349 72.8875 223.311 72.8828 223.272 72.8789C223.259 72.8773 223.241 72.8758 223.228 72.8742C223.156 72.8664 223.081 72.8586 223.009 72.8508C222.996 72.8492 222.981 72.8477 222.967 72.8461C222.927 72.8422 222.886 72.8375 222.847 72.8336C222.831 72.832 222.817 72.8305 222.802 72.8289C222.732 72.8219 222.665 72.8148 222.595 72.807C222.573 72.8047 222.555 72.8031 222.533 72.8008C222.496 72.7969 222.457 72.793 222.421 72.7891C222.401 72.7867 222.384 72.7852 222.364 72.7828C222.301 72.7766 222.238 72.7695 222.175 72.7633C222.152 72.7609 222.125 72.7586 222.103 72.7563C222.068 72.7523 222.032 72.7492 221.998 72.7453C221.973 72.743 221.948 72.7406 221.923 72.7375C221.865 72.732 221.807 72.7258 221.749 72.7203C221.724 72.718 221.698 72.7148 221.673 72.7125C221.638 72.7094 221.602 72.7055 221.568 72.7023C221.541 72.7 221.51 72.6969 221.484 72.6937C221.427 72.6883 221.37 72.6828 221.314 72.6773C221.291 72.675 221.271 72.6734 221.248 72.6711C221.127 72.6594 221.008 72.6477 220.887 72.6359C220.862 72.6336 220.838 72.6312 220.813 72.6289C220.762 72.6242 220.71 72.6188 220.66 72.6141C220.628 72.6109 220.593 72.6078 220.562 72.6047C220.527 72.6016 220.491 72.5984 220.458 72.5953C220.433 72.593 220.407 72.5906 220.382 72.5883C220.324 72.5828 220.265 72.5773 220.207 72.5719C220.184 72.5695 220.157 72.5672 220.134 72.5648C220.1 72.5617 220.062 72.5578 220.028 72.5547C220.001 72.5523 219.973 72.55 219.945 72.5469C219.893 72.5422 219.841 72.5375 219.789 72.5328C219.759 72.5305 219.729 72.5273 219.699 72.525C219.663 72.5219 219.628 72.5188 219.593 72.5156C219.568 72.5133 219.545 72.5117 219.52 72.5094C219.462 72.5039 219.406 72.4992 219.348 72.4938C219.32 72.4914 219.295 72.4891 219.267 72.4867C219.233 72.4836 219.196 72.4805 219.163 72.4773C219.135 72.475 219.109 72.4727 219.082 72.4703C219.025 72.4656 218.97 72.4609 218.913 72.4555C218.886 72.4531 218.86 72.4508 218.832 72.4484C218.798 72.4453 218.762 72.4422 218.727 72.4398C218.698 72.4375 218.666 72.4344 218.637 72.432C218.588 72.4281 218.538 72.4234 218.488 72.4195C218.456 72.4172 218.425 72.4141 218.393 72.4117C218.362 72.4094 218.33 72.4063 218.298 72.4039C218.257 72.4008 218.216 72.3969 218.176 72.3938C218.137 72.3906 218.095 72.3875 218.057 72.3836C218.023 72.3805 217.991 72.3781 217.957 72.3758C217.924 72.3727 217.891 72.3703 217.858 72.368C217.819 72.3648 217.784 72.3617 217.745 72.3594C217.702 72.3555 217.659 72.3523 217.616 72.3492C217.584 72.3469 217.552 72.3445 217.52 72.3414C217.489 72.3391 217.458 72.3367 217.427 72.3336C217.373 72.3297 217.321 72.3258 217.269 72.3211C217.24 72.3188 217.211 72.3164 217.182 72.3141C217.15 72.3117 217.113 72.3086 217.081 72.3063C217.049 72.3039 217.018 72.3016 216.986 72.2992C216.933 72.2953 216.884 72.2914 216.83 72.2875C216.8 72.2852 216.77 72.2828 216.74 72.2805C216.708 72.2781 216.673 72.2758 216.641 72.2734C216.612 72.2711 216.581 72.2688 216.552 72.2672C216.497 72.2633 216.443 72.2594 216.388 72.2547C216.362 72.2531 216.337 72.2508 216.311 72.2492C216.272 72.2461 216.233 72.2438 216.195 72.2406C216.167 72.2383 216.141 72.2367 216.113 72.2344C216.058 72.2305 216.003 72.2266 215.948 72.2227C215.922 72.2211 215.895 72.2187 215.87 72.2172C215.83 72.2141 215.788 72.2117 215.75 72.2086C215.726 72.207 215.702 72.2055 215.677 72.2031C215.622 72.1992 215.566 72.1953 215.511 72.1914C215.484 72.1898 215.457 72.1875 215.43 72.1859C215.391 72.1836 215.348 72.1805 215.309 72.1773C215.28 72.1758 215.25 72.1734 215.221 72.1711C215.17 72.168 215.117 72.1641 215.066 72.1609C215.04 72.1594 215.016 72.1578 214.99 72.1563C214.946 72.1531 214.905 72.1508 214.862 72.1477C214.833 72.1461 214.805 72.1438 214.777 72.1422C214.726 72.1391 214.674 72.1352 214.624 72.132C214.6 72.1305 214.575 72.1289 214.551 72.1273C214.505 72.1242 214.463 72.1219 214.417 72.1187C214.384 72.1164 214.349 72.1148 214.316 72.1125C214.271 72.1094 214.227 72.107 214.184 72.1039C214.158 72.1023 214.133 72.1008 214.106 72.0992C214.055 72.0961 214.005 72.093 213.954 72.0898C213.928 72.0883 213.905 72.0867 213.879 72.0852C213.832 72.082 213.785 72.0797 213.74 72.0766C213.716 72.075 213.691 72.0734 213.666 72.0719C213.612 72.0688 213.559 72.0656 213.505 72.0625C213.48 72.0609 213.452 72.0594 213.427 72.0578C213.383 72.0555 213.338 72.0523 213.295 72.05C213.269 72.0484 213.247 72.0469 213.221 72.0461C213.163 72.043 213.103 72.0391 213.045 72.0359C213.025 72.0352 213.006 72.0336 212.986 72.0328C212.939 72.0305 212.891 72.0273 212.845 72.025C212.823 72.0234 212.804 72.0227 212.78 72.0211C212.722 72.018 212.659 72.0141 212.601 72.0109C212.58 72.0102 212.558 72.0086 212.538 72.0078C212.491 72.0055 212.442 72.0023 212.396 72C212.374 71.9992 212.356 71.9977 212.334 71.9969C212.273 71.9938 212.216 71.9906 212.155 71.9875C212.133 71.9867 212.108 71.9852 212.087 71.9836C212.042 71.9813 211.998 71.9789 211.954 71.9766C211.93 71.9758 211.912 71.9742 211.888 71.9734C211.83 71.9703 211.769 71.9672 211.709 71.9641C211.688 71.9633 211.663 71.9617 211.641 71.9609C211.595 71.9586 211.548 71.9563 211.502 71.9539C211.481 71.9531 211.462 71.9523 211.442 71.9508C211.381 71.9477 211.321 71.9445 211.259 71.9422C211.237 71.9414 211.219 71.9398 211.197 71.9391C211.145 71.9367 211.095 71.9344 211.043 71.9313C211.027 71.9305 211.014 71.9297 210.998 71.9289C210.938 71.9258 210.876 71.9227 210.815 71.9203C210.791 71.9195 210.768 71.918 210.745 71.9172C210.695 71.9148 210.645 71.9125 210.596 71.9102C210.58 71.9094 210.563 71.9086 210.548 71.9078C210.487 71.9047 210.426 71.9023 210.364 71.8992C210.341 71.8984 210.316 71.8969 210.294 71.8961C210.245 71.8938 210.194 71.8914 210.145 71.8898C210.127 71.8891 210.112 71.8883 210.093 71.8875C210.034 71.8852 209.979 71.8828 209.92 71.8797C209.893 71.8789 209.868 71.8773 209.841 71.8766C209.795 71.8742 209.745 71.8727 209.698 71.8703C209.672 71.8695 209.642 71.868 209.616 71.8672C209.566 71.8648 209.513 71.8633 209.465 71.8609C209.441 71.8602 209.42 71.8594 209.396 71.8578C209.334 71.8555 209.268 71.8523 209.206 71.85C209.198 71.85 209.193 71.8492 209.185 71.8492C209.126 71.8469 209.069 71.8445 209.01 71.8422C208.99 71.8414 208.968 71.8406 208.948 71.8398C208.884 71.8375 208.823 71.8352 208.759 71.8328C208.745 71.832 208.733 71.832 208.719 71.8313C208.664 71.8289 208.612 71.8273 208.557 71.825C208.537 71.8242 208.516 71.8234 208.496 71.8227C208.432 71.8203 208.37 71.818 208.305 71.8156C208.292 71.8148 208.28 71.8148 208.267 71.8141C208.213 71.8117 208.156 71.8102 208.102 71.8086C208.083 71.8078 208.066 71.807 208.047 71.807C207.983 71.8047 207.918 71.8023 207.854 71.8008C207.84 71.8 207.824 71.8 207.81 71.7992C207.753 71.7977 207.702 71.7953 207.645 71.7937C207.627 71.793 207.611 71.793 207.594 71.7922C207.53 71.7898 207.463 71.7883 207.398 71.7859C207.384 71.7852 207.369 71.7852 207.355 71.7844C207.3 71.7828 207.245 71.7813 207.19 71.7789C207.173 71.7781 207.157 71.7781 207.14 71.7773C207.076 71.7758 207.012 71.7734 206.947 71.7719C206.93 71.7711 206.912 71.7711 206.895 71.7703C206.842 71.7687 206.785 71.7672 206.733 71.7656C206.717 71.7648 206.701 71.7648 206.685 71.7641C206.618 71.7625 206.555 71.7602 206.488 71.7586C206.473 71.7578 206.458 71.7578 206.442 71.757C206.384 71.7555 206.326 71.7539 206.268 71.7523C206.257 71.7523 206.244 71.7516 206.233 71.7516C206.166 71.75 206.102 71.7484 206.036 71.7469C206.019 71.7461 206.001 71.7461 205.984 71.7453C205.926 71.7438 205.866 71.7422 205.809 71.7406C205.797 71.7406 205.788 71.7398 205.776 71.7398C205.709 71.7383 205.645 71.7367 205.578 71.7352C205.561 71.7352 205.542 71.7344 205.525 71.7336C205.467 71.732 205.408 71.7313 205.35 71.7297C205.339 71.7297 205.329 71.7289 205.318 71.7289C205.253 71.7273 205.188 71.7258 205.123 71.725C205.103 71.7242 205.085 71.7242 205.064 71.7234C205.006 71.7219 204.949 71.7211 204.891 71.7195C204.874 71.7195 204.855 71.7188 204.838 71.7188C204.78 71.718 204.721 71.7164 204.663 71.7156C204.645 71.7156 204.626 71.7148 204.606 71.7148C204.541 71.7133 204.473 71.7125 204.408 71.7109C204.402 71.7109 204.391 71.7109 204.384 71.7102C204.324 71.7094 204.264 71.7078 204.204 71.707C204.187 71.707 204.165 71.7062 204.148 71.7062C204.08 71.7055 204.017 71.7039 203.949 71.7031C203.938 71.7031 203.93 71.7031 203.919 71.7023C203.859 71.7016 203.797 71.7 203.737 71.6992C203.721 71.6992 203.707 71.6984 203.691 71.6984C203.623 71.6977 203.556 71.6961 203.489 71.6953C203.478 71.6953 203.462 71.6953 203.452 71.6945C203.394 71.6937 203.337 71.693 203.279 71.6922C203.263 71.6922 203.244 71.6914 203.228 71.6914C203.162 71.6906 203.097 71.6898 203.031 71.6891C203.016 71.6891 202.998 71.6891 202.983 71.6883C202.927 71.6875 202.87 71.6867 202.814 71.6859C202.8 71.6859 202.783 71.6859 202.768 71.6852C202.7 71.6844 202.634 71.6836 202.566 71.6828C202.552 71.6828 202.536 71.6828 202.522 71.682C202.463 71.6813 202.409 71.6813 202.352 71.6805C202.338 71.6805 202.321 71.6805 202.306 71.6797C202.238 71.6789 202.172 71.6781 202.104 71.6781C202.09 71.6781 202.077 71.6781 202.062 71.6781C202.001 71.6773 201.938 71.6773 201.877 71.6766C201.866 71.6766 201.857 71.6766 201.845 71.6766C201.775 71.6758 201.71 71.6758 201.639 71.675C201.625 71.675 201.609 71.675 201.595 71.675C201.534 71.675 201.469 71.6742 201.408 71.6742C201.4 71.6742 201.391 71.6742 201.383 71.6742C201.315 71.6742 201.246 71.6734 201.177 71.6734C201.162 71.6734 201.144 71.6734 201.127 71.6734C201.066 71.6734 201.002 71.6727 200.941 71.6727C200.934 71.6727 200.924 71.6727 200.916 71.6727C200.848 71.6727 200.781 71.6719 200.712 71.6719C200.695 71.6719 200.677 71.6719 200.659 71.6719C200.595 71.6719 200.531 71.6719 200.468 71.6719C200.463 71.6719 200.457 71.6719 200.452 71.6719C200.383 71.6719 200.315 71.6719 200.246 71.6719C200.228 71.6719 200.212 71.6719 200.195 71.6719C200.14 71.6781 200.068 71.6781 200 71.6781Z" fill="#BD7F00"/>
<path d="M282.831 253.348C275.454 253.348 269.469 247.291 269.469 239.818C269.469 232.345 275.453 226.288 282.831 226.288C290.2 226.288 296.185 232.345 296.185 239.818C296.185 247.291 290.201 253.348 282.831 253.348ZM277.319 201.984C227.92 201.984 223.501 281.338 224.289 334.041C228.437 337.238 230.668 341.991 230.668 347.818C230.668 353.527 227.932 358.833 225.108 362.788C225.142 363.813 225.173 364.798 225.202 365.746C232.839 359.859 239.131 351.666 245.609 343.222C251.073 336.102 256.721 328.739 263.818 321.643C286.249 299.212 384.591 232.191 385.582 231.516L399.999 221.702C399.995 221.699 334.805 201.984 277.319 201.984Z" fill="#B19267"/>
<path d="M200.05 378.628C200.034 378.628 200.016 378.628 200 378.628C200.016 378.628 200.034 378.628 200.05 378.628ZM200.1 378.628C200.088 378.628 200.077 378.628 200.066 378.628C200.077 378.628 200.089 378.628 200.1 378.628ZM200.151 378.627C200.14 378.627 200.129 378.627 200.117 378.627C200.129 378.628 200.14 378.627 200.151 378.627ZM200.202 378.627C200.191 378.627 200.18 378.627 200.169 378.627C200.18 378.627 200.191 378.627 200.202 378.627ZM200.259 378.627C200.247 378.627 200.233 378.627 200.22 378.627C200.233 378.627 200.245 378.627 200.259 378.627ZM200.372 378.624C200.338 378.625 200.302 378.626 200.268 378.626C200.303 378.626 200.338 378.625 200.372 378.624ZM200.422 378.623C200.407 378.623 200.393 378.624 200.379 378.624C200.393 378.624 200.407 378.623 200.422 378.623ZM200.476 378.622C200.462 378.622 200.448 378.623 200.434 378.623C200.448 378.623 200.463 378.622 200.476 378.622ZM200.531 378.62C200.515 378.621 200.5 378.621 200.484 378.622C200.5 378.621 200.516 378.621 200.531 378.62ZM210.409 375.812C207.436 377.357 204.064 378.513 200.535 378.62C204.066 378.513 207.437 377.357 210.409 375.812Z" fill="#BDBDBF"/>
<path d="M200 328.891V378.63C200.016 378.63 200.034 378.63 200.05 378.63C200.055 378.63 200.061 378.63 200.066 378.63C200.077 378.63 200.088 378.63 200.1 378.63C200.106 378.63 200.113 378.63 200.119 378.63C200.13 378.63 200.141 378.63 200.152 378.63C200.158 378.63 200.164 378.63 200.17 378.63C200.18 378.63 200.192 378.63 200.203 378.63C200.209 378.63 200.215 378.63 200.221 378.63C200.234 378.63 200.248 378.63 200.26 378.629C200.263 378.629 200.266 378.629 200.27 378.629C200.305 378.628 200.34 378.627 200.374 378.627C200.377 378.627 200.378 378.627 200.38 378.627C200.395 378.627 200.409 378.627 200.423 378.627C200.427 378.627 200.432 378.627 200.436 378.627C200.45 378.627 200.463 378.626 200.477 378.626C200.48 378.626 200.483 378.626 200.485 378.626C200.502 378.625 200.516 378.625 200.533 378.624C200.534 378.624 200.535 378.624 200.536 378.624C204.065 378.517 207.438 377.361 210.409 375.817C213.813 374.049 216.691 371.77 218.687 369.972C218.691 369.97 218.695 369.968 218.698 369.966C219.356 369.373 219.918 368.832 220.371 368.38C221.559 367.193 223.352 365.255 225.109 362.794C227.932 358.839 230.669 353.534 230.669 347.824C230.669 341.997 228.438 337.244 224.29 334.047C223.044 333.087 221.624 332.266 220.041 331.6C215.47 329.674 209.664 328.891 200 328.891Z" fill="#191310"/>
</g>
<defs>
<clipPath id="clip0">
<rect width="400" height="400" fill="white"/>
</clipPath>
</defs>
</svg>
