<svg width="267" height="267" viewBox="0 0 267 267" fill="none" xmlns="http://www.w3.org/2000/svg">
<path d="M197.003 133.562L241.225 89.339C245.559 85.0056 245.559 78.0055 241.225 73.6721L193.003 25.4493C188.669 21.1159 181.669 21.1159 177.336 25.4493L133.113 69.672L88.8902 25.4493C86.668 23.3381 83.8902 22.227 81.0012 22.227C78.2234 22.227 75.3345 23.3381 73.2234 25.4493L25.0005 73.6721C20.6671 78.0055 20.6671 85.0056 25.0005 89.339L69.2233 133.562L25.0005 177.785C20.6671 182.118 20.6671 189.118 25.0005 193.451L73.2234 241.674C77.5567 246.008 84.5568 246.008 88.8902 241.674L133.113 197.451L177.336 241.674C179.558 243.896 182.336 244.896 185.225 244.896C188.114 244.896 190.891 243.785 193.114 241.674L241.337 193.451C245.67 189.118 245.67 182.118 241.337 177.785L197.003 133.562ZM133.335 100.006C139.446 100.006 144.446 105.006 144.446 111.117C144.446 117.228 139.446 122.228 133.335 122.228C127.224 122.228 122.224 117.228 122.224 111.117C122.224 105.006 127.224 100.006 133.335 100.006ZM81.0012 121.784L40.6674 81.5611L81.0012 41.2272L121.224 81.45L81.0012 121.784ZM111.113 144.451C105.002 144.451 100.001 139.451 100.001 133.34C100.001 127.228 105.002 122.228 111.113 122.228C117.224 122.228 122.224 127.228 122.224 133.34C122.224 139.451 117.224 144.451 111.113 144.451ZM133.335 166.673C127.224 166.673 122.224 161.673 122.224 155.562C122.224 149.451 127.224 144.451 133.335 144.451C139.446 144.451 144.446 149.451 144.446 155.562C144.446 161.673 139.446 166.673 133.335 166.673ZM155.558 122.228C161.669 122.228 166.669 127.228 166.669 133.34C166.669 139.451 161.669 144.451 155.558 144.451C149.447 144.451 144.446 139.451 144.446 133.34C144.446 127.228 149.447 122.228 155.558 122.228ZM185.114 226.007L144.78 185.785L185.114 145.451L225.336 185.673L185.114 226.007Z" fill="white"/>
</svg>
